<svg width="23" height="30" viewBox="0 0 23 30" fill="none" xmlns="http://www.w3.org/2000/svg">
<path d="M0.260986 0.130371L2.39972 29.7887V29.8695H20.8122L22.9509 0.222693V0.130371H0.260986ZM20.0557 29.0386H3.16193L1.55788 6.8237H2.43954L3.89002 26.4017C3.89851 26.5048 3.94461 26.6009 4.0193 26.6714C4.09399 26.7418 4.1919 26.7814 4.29387 26.7825H4.328C4.38108 26.7788 4.43293 26.7646 4.48056 26.7405C4.52819 26.7165 4.57067 26.6831 4.60556 26.6424C4.64044 26.6016 4.66704 26.5543 4.68384 26.5031C4.70063 26.4519 4.70729 26.3978 4.70342 26.344L3.25294 6.8237H21.6597L20.0557 29.0386ZM21.7166 5.9928H3.19037L2.87184 1.66522C2.86183 1.55964 2.81293 1.46178 2.7349 1.39119C2.65687 1.32059 2.55546 1.28245 2.45092 1.28439C2.34378 1.29467 2.24477 1.34673 2.17474 1.42961C2.1047 1.5125 2.06913 1.61972 2.0755 1.72869L2.39404 5.99857H1.501L1.13696 0.955496H22.0807L21.7166 5.9928Z" fill="#407BFF"/>
<path d="M6.77965 10.932C7.04516 10.932 7.3047 10.8521 7.52545 10.7025C7.74621 10.5529 7.91827 10.3402 8.01987 10.0914C8.12147 9.84253 8.14806 9.56873 8.09626 9.30458C8.04446 9.04043 7.91661 8.79779 7.72887 8.60734C7.54114 8.4169 7.30194 8.28721 7.04154 8.23466C6.78114 8.18212 6.51123 8.20909 6.26594 8.31215C6.02065 8.41522 5.811 8.58976 5.66349 8.8137C5.51599 9.03763 5.43726 9.30091 5.43726 9.57024C5.43726 9.9314 5.57869 10.2778 5.83044 10.5331C6.08218 10.7885 6.42363 10.932 6.77965 10.932ZM6.77965 9.03362C6.88428 9.03362 6.98656 9.06509 7.07355 9.12406C7.16054 9.18302 7.22835 9.26683 7.26838 9.36489C7.30842 9.46294 7.3189 9.57084 7.29849 9.67493C7.27808 9.77902 7.22769 9.87464 7.15371 9.94969C7.07973 10.0247 6.98547 10.0758 6.88286 10.0966C6.78024 10.1173 6.67388 10.1066 6.57722 10.066C6.48056 10.0254 6.39794 9.95662 6.33981 9.86837C6.28168 9.78012 6.25066 9.67638 6.25066 9.57024C6.25066 9.42792 6.30639 9.29143 6.4056 9.19079C6.5048 9.09016 6.63936 9.03362 6.77965 9.03362Z" fill="#407BFF"/>
<path d="M6.77379 15.3576C6.77716 15.6264 6.85889 15.8882 7.00868 16.1099C7.15847 16.3317 7.36962 16.5035 7.61552 16.6038C7.86142 16.704 8.13106 16.7282 8.39048 16.6733C8.64989 16.6183 8.88747 16.4867 9.07328 16.295C9.25908 16.1033 9.3848 15.8601 9.43458 15.5961C9.48437 15.332 9.45599 15.0589 9.35304 14.8112C9.25008 14.5635 9.07715 14.3523 8.85603 14.2041C8.63492 14.0559 8.37551 13.9774 8.1105 13.9785C7.93325 13.9793 7.7579 14.0156 7.59457 14.0855C7.43124 14.1553 7.28316 14.2573 7.15889 14.3855C7.03461 14.5137 6.9366 14.6656 6.8705 14.8325C6.8044 14.9993 6.77154 15.1778 6.77379 15.3576ZM8.6395 15.3576C8.6395 15.4637 8.60847 15.5675 8.55035 15.6557C8.49222 15.744 8.4096 15.8127 8.31294 15.8534C8.21628 15.894 8.10991 15.9046 8.0073 15.8839C7.90468 15.8632 7.81043 15.8121 7.73644 15.737C7.66246 15.662 7.61208 15.5664 7.59167 15.4623C7.57126 15.3582 7.58173 15.2503 7.62177 15.1522C7.66181 15.0542 7.72961 14.9704 7.81661 14.9114C7.9036 14.8524 8.00588 14.821 8.1105 14.821C8.2508 14.821 8.38535 14.8775 8.48456 14.9781C8.58376 15.0788 8.6395 15.2153 8.6395 15.3576Z" fill="#407BFF"/>
<path d="M16.3129 15.3922C16.5784 15.3922 16.8379 15.3123 17.0587 15.1627C17.2794 15.0131 17.4515 14.8004 17.5531 14.5516C17.6547 14.3027 17.6813 14.0289 17.6295 13.7648C17.5777 13.5006 17.4498 13.258 17.2621 13.0675C17.0743 12.8771 16.8351 12.7474 16.5747 12.6949C16.3143 12.6423 16.0444 12.6693 15.7991 12.7724C15.5539 12.8754 15.3442 13.05 15.1967 13.2739C15.0492 13.4978 14.9705 13.7611 14.9705 14.0304C14.9705 14.3916 15.1119 14.738 15.3636 14.9933C15.6154 15.2487 15.9568 15.3922 16.3129 15.3922ZM16.3129 13.4996C16.4177 13.4996 16.5202 13.5312 16.6073 13.5905C16.6944 13.6497 16.7622 13.7338 16.8021 13.8322C16.842 13.9306 16.8521 14.0388 16.8312 14.143C16.8104 14.2473 16.7594 14.3429 16.6849 14.4177C16.6103 14.4925 16.5155 14.5432 16.4125 14.5632C16.3095 14.5833 16.203 14.5718 16.1064 14.5303C16.0099 14.4888 15.9277 14.4191 15.8702 14.3301C15.8128 14.2411 15.7827 14.1368 15.7839 14.0304C15.7854 13.8891 15.8418 13.7541 15.9408 13.6547C16.0398 13.5553 16.1735 13.4996 16.3129 13.4996Z" fill="#407BFF"/>
<path d="M11.6373 12.8246C11.9028 12.8246 12.1624 12.7447 12.3831 12.5951C12.6039 12.4454 12.7759 12.2328 12.8775 11.9839C12.9791 11.7351 13.0057 11.4613 12.9539 11.1972C12.9021 10.933 12.7743 10.6904 12.5865 10.4999C12.3988 10.3095 12.1596 10.1798 11.8992 10.1272C11.6388 10.0747 11.3689 10.1017 11.1236 10.2047C10.8783 10.3078 10.6687 10.4823 10.5212 10.7063C10.3737 10.9302 10.2949 11.1935 10.2949 11.4628C10.2949 11.824 10.4364 12.1703 10.6881 12.4257C10.9399 12.6811 11.2813 12.8246 11.6373 12.8246ZM11.6373 10.9262C11.7419 10.9262 11.8442 10.9577 11.9312 11.0166C12.0182 11.0756 12.086 11.1594 12.126 11.2575C12.1661 11.3555 12.1766 11.4634 12.1562 11.5675C12.1357 11.6716 12.0854 11.7672 12.0114 11.8423C11.9374 11.9173 11.8431 11.9684 11.7405 11.9891C11.6379 12.0098 11.5315 11.9992 11.4349 11.9586C11.3382 11.918 11.2556 11.8492 11.1975 11.761C11.1394 11.6727 11.1083 11.569 11.1083 11.4628C11.1045 11.39 11.1153 11.3171 11.1401 11.2486C11.165 11.1801 11.2033 11.1175 11.2528 11.0646C11.3024 11.0117 11.362 10.9695 11.4281 10.9408C11.4942 10.912 11.5654 10.8972 11.6373 10.8973V10.9262Z" fill="#407BFF"/>
<path d="M9.07764 20.5451C9.08323 20.7664 9.15301 20.981 9.27824 21.1622C9.40346 21.3434 9.57859 21.4831 9.78169 21.5639C9.9848 21.6446 10.2069 21.6628 10.4201 21.6162C10.6334 21.5696 10.8283 21.4602 10.9806 21.3018C11.1329 21.1433 11.2358 20.9428 11.2763 20.7254C11.3169 20.508 11.2933 20.2832 11.2086 20.0793C11.1239 19.8754 10.9817 19.7013 10.8 19.5789C10.6183 19.4565 10.405 19.3912 10.1868 19.3911C9.89006 19.3986 9.60796 19.5235 9.40072 19.7392C9.19349 19.9548 9.07754 20.244 9.07764 20.5451ZM10.1868 20.2451C10.2453 20.2451 10.3025 20.2627 10.3512 20.2957C10.3998 20.3286 10.4377 20.3755 10.4601 20.4303C10.4825 20.4851 10.4883 20.5455 10.4769 20.6037C10.4655 20.6619 10.4373 20.7153 10.396 20.7573C10.3546 20.7993 10.3019 20.8278 10.2445 20.8394C10.1872 20.851 10.1277 20.845 10.0736 20.8223C10.0196 20.7996 9.97339 20.7612 9.94089 20.7118C9.90839 20.6625 9.89104 20.6045 9.89104 20.5451C9.89104 20.4656 9.9222 20.3892 9.97767 20.333C10.0331 20.2767 10.1084 20.2451 10.1868 20.2451Z" fill="#407BFF"/>
<path d="M14.4414 19.2929C14.6691 19.301 14.894 19.2394 15.0868 19.1163C15.2797 18.9932 15.4317 18.8142 15.523 18.6024C15.6144 18.3907 15.641 18.1559 15.5994 17.9287C15.5577 17.7014 15.4497 17.4921 15.2894 17.3278C15.1292 17.1635 14.9239 17.0519 14.7003 17.0073C14.4767 16.9627 14.2451 16.9872 14.0354 17.0777C13.8258 17.1682 13.6477 17.3205 13.5244 17.5149C13.401 17.7092 13.338 17.9367 13.3436 18.1678C13.3507 18.4619 13.4683 18.7423 13.6723 18.9514C13.8764 19.1606 14.1515 19.2827 14.4414 19.2929ZM14.4414 17.8677C14.5199 17.8677 14.5951 17.8993 14.6506 17.9556C14.706 18.0119 14.7372 18.0882 14.7372 18.1678C14.7372 18.2474 14.706 18.3237 14.6506 18.3799C14.5951 18.4362 14.5199 18.4678 14.4414 18.4678C14.3624 18.4678 14.2866 18.4364 14.2302 18.3803C14.1738 18.3242 14.1414 18.2479 14.1399 18.1678C14.1399 18.1279 14.1478 18.0884 14.163 18.0516C14.1782 18.0148 14.2005 17.9815 14.2286 17.9535C14.2566 17.9256 14.2899 17.9036 14.3265 17.8889C14.363 17.8742 14.4021 17.867 14.4414 17.8677Z" fill="#407BFF"/>
<path d="M16.7851 9.97992C17.0101 9.97992 17.23 9.91224 17.4171 9.78543C17.6042 9.65862 17.75 9.47839 17.8361 9.26752C17.9222 9.05665 17.9448 8.82462 17.9009 8.60076C17.857 8.3769 17.7486 8.17127 17.5895 8.00988C17.4304 7.84849 17.2277 7.73858 17.007 7.69405C16.7863 7.64952 16.5576 7.67238 16.3497 7.75972C16.1419 7.84707 15.9642 7.99498 15.8392 8.18476C15.7142 8.37453 15.6475 8.59765 15.6475 8.8259C15.6475 9.13196 15.7673 9.42549 15.9807 9.64191C16.194 9.85833 16.4834 9.97992 16.7851 9.97992ZM16.7851 8.5547C16.8291 8.54195 16.8754 8.53973 16.9205 8.54823C16.9655 8.55672 17.0079 8.5757 17.0445 8.60367C17.081 8.63164 17.1107 8.66783 17.1311 8.7094C17.1515 8.75096 17.1621 8.79677 17.1621 8.84321C17.1621 8.88965 17.1515 8.93545 17.1311 8.97702C17.1107 9.01858 17.081 9.05478 17.0445 9.08274C17.0079 9.11071 16.9655 9.12969 16.9205 9.13819C16.8754 9.14668 16.8291 9.14447 16.7851 9.13171C16.7411 9.14447 16.6947 9.14668 16.6497 9.13819C16.6047 9.12969 16.5623 9.11071 16.5257 9.08274C16.4892 9.05478 16.4595 9.01858 16.4391 8.97702C16.4187 8.93545 16.4081 8.88965 16.4081 8.84321C16.4081 8.79677 16.4187 8.75096 16.4391 8.7094C16.4595 8.66783 16.4892 8.63164 16.5257 8.60367C16.5623 8.5757 16.6047 8.55672 16.6497 8.54823C16.6947 8.53973 16.7411 8.54195 16.7851 8.5547Z" fill="#407BFF"/>
<path d="M5.66464 27.5903C5.61362 27.6142 5.56798 27.6484 5.53056 27.6909C5.49314 27.7334 5.46475 27.7833 5.44714 27.8374C5.42954 27.8915 5.4231 27.9487 5.42822 28.0055C5.43335 28.0623 5.44993 28.1173 5.47693 28.1673C5.51189 28.2347 5.56421 28.2912 5.62831 28.3308C5.69242 28.3705 5.76591 28.3917 5.84097 28.3923C5.90399 28.3941 5.96647 28.3803 6.02299 28.352C7.76094 27.4488 9.68445 26.9743 11.6372 26.9671C13.7037 26.9976 15.7414 27.4633 17.6211 28.3346C17.6955 28.374 17.78 28.3893 17.8632 28.3784C17.9464 28.3675 18.0243 28.3309 18.0863 28.2736C18.1484 28.2164 18.1916 28.1411 18.2101 28.0581C18.2286 27.9751 18.2216 27.8884 18.1899 27.8096C18.1499 27.7072 18.0724 27.6246 17.9738 27.5788C15.9837 26.6553 13.8254 26.164 11.6372 26.1362C9.56136 26.1381 7.51519 26.6362 5.66464 27.5903Z" fill="#407BFF"/>
</svg>
